<svg xmlns="http://www.w3.org/2000/svg" viewBox="0 0 94 122">
  <g id="container">
    <path fill="#fff" d="M8.1 89.9L47.6 110l38-20.1V11.3H8.1z"/>
    <path fill="#f2f3f2" d="M86.4 11.6L7.3 91.3l41 20.3 38.1-19.5z"/>
    <path d="M5.5 37.5v54.1l1.4.7 39.5 20.1 1.2.6 1.2-.6 38.1-20.1 1.4-.7V8.7H5.5v28.8zm2.6 52.6V11.3h77.6v78.8l-38.1 20.1L8.1 90.1z" fill="#dcdedc"/>
    <path id="logo" d="M46.9 12.6c.4 0 .8 0 1.2.1L46.9 15c-1.8-.1-3.4 1.3-3.5 3.1-.1 1.8 1.3 3.4 3.1 3.5h.4c.8 0 1.6-.3 2.2-.8l1.3 2.2c-1 .7-2.2 1.1-3.5 1.1-3.2.1-5.9-2.3-6-5.5-.1-3.2 2.3-5.9 5.5-6h.5zm4.1 4.9l1.5 2.5-1.5 2.4-1.4-2.4h-2.9l1.5-2.5H51zm-2.4-.9c0-.4.1-.8.3-1.1.2-.3.6-.6.9-.8l.2-.1c.4-.2.5-.3.5-.5s-.3-.4-.5-.4c-.4 0-.7.2-.9.6l-.5-.5c.1-.2.3-.4.5-.6.3-.2.6-.2.9-.2.3 0 .7.1.9.3.2.2.4.5.4.8 0 .5-.3.9-.9 1.1l-.3.2c-.3.2-.5.3-.6.6h1.8v.7l-2.7-.1zm-1.7 12.5l9.5-5.4v-15H37.3v14.9l9.6 5.5z" fill="#ff492c"/>
    <path id="banner" d="M90.2 64.5H3.6l-3.2 7 3.2 7h86.6l3.1-7z" fill="#ff492c"/>
  <path fill="#252530" transform="translate(12.05, 60)" d="M5.25-10.51Q6.24-10.51 6.99-10.11Q7.74-9.71 8.15-8.96Q8.56-8.22 8.56-7.26L8.56-7.26Q8.56-6.31 8.14-5.59Q7.71-4.88 6.94-4.48Q6.17-4.08 5.16-4.08L5.16-4.08L3.03-4.08Q2.96-4.08 2.96-4.00L2.96-4.00L2.96-0.18Q2.96-0.10 2.90-0.05Q2.85 0 2.77 0L2.77 0L1.02 0Q0.94 0 0.89-0.05Q0.84-0.10 0.84-0.18L0.84-0.18L0.84-10.33Q0.84-10.41 0.89-10.46Q0.94-10.51 1.02-10.51L1.02-10.51L5.25-10.51ZM4.93-5.77Q5.63-5.77 6.04-6.17Q6.46-6.57 6.46-7.21L6.46-7.21Q6.46-7.88 6.04-8.28Q5.63-8.69 4.93-8.69L4.93-8.69L3.03-8.69Q2.96-8.69 2.96-8.61L2.96-8.61L2.96-5.85Q2.96-5.77 3.03-5.77L3.03-5.77L4.93-5.77ZM16.13-4.65Q16.21-4.08 16.18-3.38L16.18-3.38Q16.17-3.19 15.99-3.19L15.99-3.19L11.36-3.19Q11.27-3.19 11.29-3.12L11.29-3.12Q11.34-2.82 11.46-2.52L11.46-2.52Q11.85-1.68 13.05-1.68L13.05-1.68Q14.01-1.69 14.56-2.46L14.56-2.46Q14.63-2.55 14.70-2.55L14.70-2.55Q14.74-2.55 14.80-2.49L14.80-2.49L15.88-1.43Q15.96-1.35 15.96-1.29L15.96-1.29Q15.96-1.26 15.90-1.17L15.90-1.17Q15.40-0.55 14.63-0.22Q13.84 0.12 12.91 0.12L12.91 0.12Q11.63 0.12 10.73-0.46Q9.84-1.05 9.45-2.10L9.45-2.10Q9.13-2.85 9.13-4.06L9.13-4.06Q9.13-4.89 9.36-5.52L9.36-5.52Q9.71-6.58 10.57-7.21Q11.43-7.84 12.61-7.84L12.61-7.84Q14.11-7.84 15.02-6.97Q15.93-6.10 16.13-4.65L16.13-4.65ZM12.63-6.01Q11.68-6.01 11.38-5.13L11.38-5.13Q11.32-4.93 11.28-4.65L11.28-4.65Q11.28-4.58 11.36-4.58L11.36-4.58L13.95-4.58Q14.04-4.58 14.01-4.65L14.01-4.65Q13.93-5.08 13.93-5.07L13.93-5.07Q13.80-5.52 13.46-5.77Q13.13-6.01 12.63-6.01L12.63-6.01ZM21.33-7.81Q21.87-7.81 22.19-7.60L22.19-7.60Q22.30-7.54 22.27-7.38L22.27-7.38L21.96-5.67Q21.95-5.49 21.75-5.56L21.75-5.56Q21.52-5.64 21.23-5.64L21.23-5.64Q21.11-5.64 20.89-5.61L20.89-5.61Q20.36-5.56 19.98-5.21Q19.61-4.86 19.61-4.27L19.61-4.27L19.61-0.18Q19.61-0.10 19.55-0.05Q19.50 0 19.43 0L19.43 0L17.67 0Q17.60 0 17.54-0.05Q17.49-0.10 17.49-0.18L17.49-0.18L17.49-7.53Q17.49-7.60 17.54-7.66Q17.60-7.71 17.67-7.71L17.67-7.71L19.43-7.71Q19.50-7.71 19.55-7.66Q19.61-7.60 19.61-7.53L19.61-7.53L19.61-6.96Q19.61-6.92 19.64-6.90Q19.66-6.88 19.68-6.92L19.68-6.92Q20.30-7.81 21.33-7.81L21.33-7.81ZM27.72-7.72Q27.80-7.72 27.85-7.67Q27.90-7.62 27.90-7.54L27.90-7.54L27.90-6.12Q27.90-6.04 27.85-5.99Q27.80-5.94 27.72-5.94L27.72-5.94L26.27-5.94Q26.19-5.94 26.19-5.87L26.19-5.87L26.19-0.18Q26.19-0.10 26.14-0.05Q26.09 0 26.01 0L26.01 0L24.26 0Q24.18 0 24.13-0.05Q24.08-0.10 24.08-0.18L24.08-0.18L24.08-5.87Q24.08-5.94 24-5.94L24-5.94L23.12-5.94Q23.04-5.94 22.99-5.99Q22.94-6.04 22.94-6.12L22.94-6.12L22.94-7.54Q22.94-7.62 22.99-7.67Q23.04-7.72 23.12-7.72L23.12-7.72L24-7.72Q24.08-7.72 24.08-7.80L24.08-7.80L24.08-8.13Q24.08-9.06 24.36-9.58Q24.65-10.09 25.28-10.31Q25.92-10.53 27.05-10.50L27.05-10.50L27.62-10.50Q27.69-10.50 27.74-10.45Q27.80-10.39 27.80-10.32L27.80-10.32L27.80-9.11Q27.80-9.03 27.74-8.98Q27.69-8.92 27.62-8.92L27.62-8.92L27.12-8.92Q26.60-8.91 26.39-8.71Q26.19-8.50 26.19-7.96L26.19-7.96L26.19-7.80Q26.19-7.72 26.27-7.72L26.27-7.72L27.72-7.72ZM32.07 0.12Q30.81 0.12 29.91-0.54Q29.01-1.20 28.68-2.34L28.68-2.34Q28.47-3.04 28.47-3.87L28.47-3.87Q28.47-4.75 28.68-5.46L28.68-5.46Q29.03-6.57 29.93-7.20Q30.83-7.83 32.09-7.83L32.09-7.83Q33.31-7.83 34.19-7.21Q35.05-6.58 35.41-5.47L35.41-5.47Q35.66-4.72 35.66-3.90L35.66-3.90Q35.66-3.09 35.45-2.38L35.45-2.38Q35.12-1.21 34.22-0.55Q33.33 0.12 32.07 0.12L32.07 0.12ZM32.07-1.69Q32.56-1.69 32.91-1.99Q33.26-2.29 33.41-2.82L33.41-2.82Q33.52-3.30 33.52-3.87L33.52-3.87Q33.52-4.50 33.41-4.93L33.41-4.93Q33.24-5.44 32.90-5.73Q32.55-6.01 32.05-6.01L32.05-6.01Q31.55-6.01 31.21-5.73Q30.87-5.44 30.72-4.93L30.72-4.93Q30.60-4.58 30.60-3.87L30.60-3.87Q30.60-3.19 30.71-2.82L30.71-2.82Q30.86-2.29 31.21-1.99Q31.56-1.69 32.07-1.69L32.07-1.69ZM40.86-7.81Q41.40-7.81 41.72-7.60L41.72-7.60Q41.84-7.54 41.80-7.38L41.80-7.38L41.49-5.67Q41.48-5.49 41.28-5.56L41.28-5.56Q41.05-5.64 40.76-5.64L40.76-5.64Q40.64-5.64 40.43-5.61L40.43-5.61Q39.89-5.56 39.51-5.21Q39.14-4.86 39.14-4.27L39.14-4.27L39.14-0.18Q39.14-0.10 39.08-0.05Q39.03 0 38.95 0L38.95 0L37.20 0Q37.13 0 37.07-0.05Q37.02-0.10 37.02-0.18L37.02-0.18L37.02-7.53Q37.02-7.60 37.07-7.66Q37.13-7.71 37.20-7.71L37.20-7.71L38.95-7.71Q39.03-7.71 39.08-7.66Q39.14-7.60 39.14-7.53L39.14-7.53L39.14-6.96Q39.14-6.92 39.16-6.90Q39.20-6.88 39.21-6.92L39.21-6.92Q39.83-7.81 40.86-7.81L40.86-7.81ZM51.31-7.83Q52.48-7.83 53.14-7.13Q53.80-6.42 53.80-5.14L53.80-5.14L53.80-0.18Q53.80-0.10 53.75-0.05Q53.70 0 53.63 0L53.63 0L51.87 0Q51.80 0 51.74-0.05Q51.69-0.10 51.69-0.18L51.69-0.18L51.69-4.68Q51.69-5.29 51.38-5.65Q51.06-6.01 50.53-6.01L50.53-6.01Q50.01-6.01 49.68-5.65Q49.35-5.29 49.35-4.69L49.35-4.69L49.35-0.18Q49.35-0.10 49.30-0.05Q49.24 0 49.17 0L49.17 0L47.43 0Q47.35 0 47.30-0.05Q47.25-0.10 47.25-0.18L47.25-0.18L47.25-4.68Q47.25-5.28 46.92-5.65Q46.59-6.01 46.06-6.01L46.06-6.01Q45.59-6.01 45.26-5.73Q44.94-5.44 44.88-4.93L44.88-4.93L44.88-0.18Q44.88-0.10 44.83-0.05Q44.77 0 44.70 0L44.70 0L42.95 0Q42.87 0 42.82-0.05Q42.77-0.10 42.77-0.18L42.77-0.18L42.77-7.53Q42.77-7.60 42.82-7.66Q42.87-7.71 42.95-7.71L42.95-7.71L44.70-7.71Q44.77-7.71 44.83-7.66Q44.88-7.60 44.88-7.53L44.88-7.53L44.88-6.94Q44.88-6.90 44.91-6.88Q44.94-6.87 44.97-6.92L44.97-6.92Q45.59-7.83 46.88-7.83L46.88-7.83Q47.63-7.83 48.19-7.51Q48.75-7.20 49.05-6.61L49.05-6.61Q49.09-6.52 49.16-6.61L49.16-6.61Q49.48-7.23 50.05-7.53Q50.61-7.83 51.31-7.83L51.31-7.83ZM62.07-4.65Q62.16-4.08 62.13-3.38L62.13-3.38Q62.11-3.19 61.93-3.19L61.93-3.19L57.30-3.19Q57.21-3.19 57.24-3.12L57.24-3.12Q57.28-2.82 57.40-2.52L57.40-2.52Q57.79-1.68 58.99-1.68L58.99-1.68Q59.95-1.69 60.51-2.46L60.51-2.46Q60.57-2.55 60.64-2.55L60.64-2.55Q60.69-2.55 60.75-2.49L60.75-2.49L61.83-1.43Q61.90-1.35 61.90-1.29L61.90-1.29Q61.90-1.26 61.84-1.17L61.84-1.17Q61.35-0.55 60.57-0.22Q59.79 0.12 58.86 0.12L58.86 0.12Q57.57 0.12 56.68-0.46Q55.78-1.05 55.39-2.10L55.39-2.10Q55.08-2.85 55.08-4.06L55.08-4.06Q55.08-4.89 55.30-5.52L55.30-5.52Q55.65-6.58 56.51-7.21Q57.37-7.84 58.56-7.84L58.56-7.84Q60.06-7.84 60.97-6.97Q61.88-6.10 62.07-4.65L62.07-4.65ZM58.57-6.01Q57.63-6.01 57.33-5.13L57.33-5.13Q57.27-4.93 57.22-4.65L57.22-4.65Q57.22-4.58 57.30-4.58L57.30-4.58L59.89-4.58Q59.98-4.58 59.95-4.65L59.95-4.65Q59.88-5.08 59.88-5.07L59.88-5.07Q59.74-5.52 59.41-5.77Q59.07-6.01 58.57-6.01L58.57-6.01ZM67.27-7.81Q67.81-7.81 68.13-7.60L68.13-7.60Q68.25-7.54 68.22-7.38L68.22-7.38L67.91-5.67Q67.89-5.49 67.69-5.56L67.69-5.56Q67.47-5.64 67.17-5.64L67.17-5.64Q67.05-5.64 66.84-5.61L66.84-5.61Q66.30-5.56 65.92-5.21Q65.55-4.86 65.55-4.27L65.55-4.27L65.55-0.18Q65.55-0.10 65.50-0.05Q65.44 0 65.37 0L65.37 0L63.61 0Q63.54 0 63.49-0.05Q63.43-0.10 63.43-0.18L63.43-0.18L63.43-7.53Q63.43-7.60 63.49-7.66Q63.54-7.71 63.61-7.71L63.61-7.71L65.37-7.71Q65.44-7.71 65.50-7.66Q65.55-7.60 65.55-7.53L65.55-7.53L65.55-6.96Q65.55-6.92 65.58-6.90Q65.61-6.88 65.63-6.92L65.63-6.92Q66.24-7.81 67.27-7.81L67.27-7.81Z"/><path fill="#252530" transform="translate(31.56, 45)" d="M6.50-10.32Q6.50-10.39 6.55-10.45Q6.60-10.50 6.67-10.50L6.67-10.50L8.43-10.50Q8.50-10.50 8.56-10.45Q8.61-10.39 8.61-10.32L8.61-10.32L8.61-0.18Q8.61-0.10 8.56-0.05Q8.50 0 8.43 0L8.43 0L6.67 0Q6.60 0 6.55-0.05Q6.50-0.10 6.50-0.18L6.50-0.18L6.50-4.32Q6.50-4.39 6.42-4.39L6.42-4.39L3.10-4.39Q3.03-4.39 3.03-4.32L3.03-4.32L3.03-0.18Q3.03-0.10 2.98-0.05Q2.92 0 2.85 0L2.85 0L1.09 0Q1.02 0 0.97-0.05Q0.91-0.10 0.91-0.18L0.91-0.18L0.91-10.32Q0.91-10.39 0.97-10.45Q1.02-10.50 1.09-10.50L1.09-10.50L2.85-10.50Q2.92-10.50 2.98-10.45Q3.03-10.39 3.03-10.32L3.03-10.32L3.03-6.29Q3.03-6.21 3.10-6.21L3.10-6.21L6.42-6.21Q6.50-6.21 6.50-6.29L6.50-6.29L6.50-10.32ZM11.34-8.58Q10.83-8.58 10.49-8.92Q10.15-9.25 10.15-9.76L10.15-9.76Q10.15-10.29 10.48-10.62Q10.81-10.95 11.34-10.95L11.34-10.95Q11.87-10.95 12.20-10.62Q12.53-10.29 12.53-9.76L12.53-9.76Q12.53-9.25 12.19-8.92Q11.85-8.58 11.34-8.58L11.34-8.58ZM10.44 0Q10.37 0 10.31-0.05Q10.26-0.10 10.26-0.18L10.26-0.18L10.26-7.54Q10.26-7.62 10.31-7.67Q10.37-7.72 10.44-7.72L10.44-7.72L12.20-7.72Q12.27-7.72 12.32-7.67Q12.38-7.62 12.38-7.54L12.38-7.54L12.38-0.18Q12.38-0.10 12.32-0.05Q12.27 0 12.20 0L12.20 0L10.44 0ZM18.73-7.53Q18.73-7.60 18.79-7.66Q18.84-7.71 18.91-7.71L18.91-7.71L20.67-7.71Q20.74-7.71 20.80-7.66Q20.85-7.60 20.85-7.53L20.85-7.53L20.85-0.69Q20.85 1.27 19.72 2.11Q18.59 2.96 16.80 2.96L16.80 2.96Q16.27 2.96 15.63 2.88L15.63 2.88Q15.48 2.86 15.48 2.69L15.48 2.69L15.54 1.14Q15.54 0.94 15.75 0.97L15.75 0.97Q16.29 1.06 16.74 1.06L16.74 1.06Q17.70 1.06 18.22 0.65Q18.73 0.22 18.73-0.70L18.73-0.70Q18.73-0.75 18.70-0.76Q18.67-0.77 18.64-0.73L18.64-0.73Q18.07-0.12 16.98-0.12L16.98-0.12Q16.00-0.12 15.19-0.59Q14.37-1.06 14.02-2.11L14.02-2.11Q13.80-2.80 13.80-3.90L13.80-3.90Q13.80-5.07 14.07-5.80L14.07-5.80Q14.38-6.72 15.13-7.27Q15.88-7.83 16.88-7.83L16.88-7.83Q18.03-7.83 18.64-7.14L18.64-7.14Q18.67-7.11 18.70-7.12Q18.73-7.13 18.73-7.17L18.73-7.17L18.73-7.53ZM18.61-2.69Q18.73-3.13 18.73-3.92L18.73-3.92Q18.73-4.38 18.70-4.63Q18.67-4.89 18.60-5.12L18.60-5.12Q18.46-5.52 18.15-5.77Q17.84-6.01 17.37-6.01L17.37-6.01Q16.92-6.01 16.61-5.77Q16.29-5.52 16.14-5.12L16.14-5.12Q15.93-4.67 15.93-3.90L15.93-3.90Q15.93-3.06 16.11-2.70L16.11-2.70Q16.24-2.29 16.58-2.05Q16.92-1.80 17.38-1.80L17.38-1.80Q17.86-1.80 18.18-2.05Q18.49-2.29 18.61-2.69L18.61-2.69ZM26.39-7.83Q27.59-7.83 28.32-7.09Q29.05-6.36 29.05-5.10L29.05-5.10L29.05-0.18Q29.05-0.10 29.00-0.05Q28.95 0 28.88 0L28.88 0L27.12 0Q27.05 0 26.99-0.05Q26.94-0.10 26.94-0.18L26.94-0.18L26.94-4.67Q26.94-5.26 26.60-5.64Q26.27-6.01 25.71-6.01L25.71-6.01Q25.16-6.01 24.82-5.64Q24.48-5.26 24.48-4.67L24.48-4.67L24.48-0.18Q24.48-0.10 24.43-0.05Q24.38 0 24.30 0L24.30 0L22.55 0Q22.47 0 22.42-0.05Q22.37-0.10 22.37-0.18L22.37-0.18L22.37-10.32Q22.37-10.39 22.42-10.45Q22.47-10.50 22.55-10.50L22.55-10.50L24.30-10.50Q24.38-10.50 24.43-10.45Q24.48-10.39 24.48-10.32L24.48-10.32L24.48-7.00Q24.48-6.96 24.51-6.94Q24.54-6.93 24.55-6.96L24.55-6.96Q25.17-7.83 26.39-7.83L26.39-7.83Z"/><path fill="#fff" transform="translate(13.91, 75.4)" d="M2.99 0.08Q2.21 0.08 1.63-0.17Q1.05-0.42 0.73-0.87Q0.42-1.32 0.42-1.93L0.42-1.93L0.42-2.18Q0.42-2.23 0.46-2.27Q0.49-2.30 0.54-2.30L0.54-2.30L1.43-2.30Q1.48-2.30 1.52-2.27Q1.55-2.23 1.55-2.18L1.55-2.18L1.55-1.99Q1.55-1.53 1.96-1.23Q2.37-0.92 3.08-0.92L3.08-0.92Q3.69-0.92 4-1.18Q4.31-1.44 4.31-1.85L4.31-1.85Q4.31-2.13 4.14-2.33Q3.97-2.52 3.66-2.68Q3.34-2.84 2.71-3.08L2.71-3.08Q2-3.34 1.56-3.57Q1.12-3.80 0.83-4.20Q0.53-4.59 0.53-5.18L0.53-5.18Q0.53-6.06 1.17-6.57Q1.81-7.08 2.88-7.08L2.88-7.08Q3.63-7.08 4.21-6.82Q4.78-6.56 5.10-6.09Q5.42-5.63 5.42-5.02L5.42-5.02L5.42-4.85Q5.42-4.80 5.38-4.76Q5.35-4.73 5.30-4.73L5.30-4.73L4.40-4.73Q4.35-4.73 4.32-4.76Q4.28-4.80 4.28-4.85L4.28-4.85L4.28-4.96Q4.28-5.43 3.90-5.75Q3.51-6.08 2.83-6.08L2.83-6.08Q2.28-6.08 1.98-5.85Q1.67-5.62 1.67-5.20L1.67-5.20Q1.67-4.90 1.83-4.71Q1.99-4.52 2.31-4.37Q2.63-4.21 3.30-3.97L3.30-3.97Q4.01-3.70 4.44-3.48Q4.86-3.26 5.17-2.87Q5.47-2.47 5.47-1.88L5.47-1.88Q5.47-0.98 4.80-0.45Q4.14 0.08 2.99 0.08L2.99 0.08ZM12-5.19Q12.77-5.19 13.21-4.73Q13.64-4.26 13.64-3.43L13.64-3.43L13.64-0.12Q13.64-0.07 13.61-0.04Q13.57 0 13.52 0L13.52 0L12.61 0Q12.56 0 12.53-0.04Q12.49-0.07 12.49-0.12L12.49-0.12L12.49-3.19Q12.49-3.65 12.25-3.92Q12-4.19 11.59-4.19L11.59-4.19Q11.18-4.19 10.92-3.92Q10.66-3.65 10.66-3.20L10.66-3.20L10.66-0.12Q10.66-0.07 10.63-0.04Q10.59 0 10.54 0L10.54 0L9.63 0Q9.58 0 9.54-0.04Q9.51-0.07 9.51-0.12L9.51-0.12L9.51-3.19Q9.51-3.65 9.26-3.92Q9.01-4.19 8.60-4.19L8.60-4.19Q8.22-4.19 7.97-3.97Q7.73-3.75 7.69-3.37L7.69-3.37L7.69-0.12Q7.69-0.07 7.66-0.04Q7.62 0 7.57 0L7.57 0L6.65 0Q6.60 0 6.57-0.04Q6.53-0.07 6.53-0.12L6.53-0.12L6.53-4.99Q6.53-5.04 6.57-5.08Q6.60-5.11 6.65-5.11L6.65-5.11L7.57-5.11Q7.62-5.11 7.66-5.08Q7.69-5.04 7.69-4.99L7.69-4.99L7.69-4.66Q7.69-4.63 7.71-4.62Q7.73-4.61 7.75-4.64L7.75-4.64Q7.97-4.92 8.29-5.05Q8.62-5.19 9.02-5.19L9.02-5.19Q9.51-5.19 9.88-4.99Q10.25-4.79 10.45-4.41L10.45-4.41Q10.48-4.37 10.52-4.41L10.52-4.41Q10.74-4.81 11.13-5Q11.52-5.19 12-5.19L12-5.19ZM16.77-5.19Q17.40-5.19 17.88-4.97Q18.36-4.75 18.62-4.37Q18.88-3.98 18.88-3.49L18.88-3.49L18.88-0.12Q18.88-0.07 18.85-0.04Q18.81 0 18.76 0L18.76 0L17.84 0Q17.79 0 17.76-0.04Q17.72-0.07 17.72-0.12L17.72-0.12L17.72-0.44Q17.72-0.47 17.70-0.48Q17.68-0.48 17.66-0.46L17.66-0.46Q17.17 0.08 16.24 0.08L16.24 0.08Q15.49 0.08 15.01-0.30Q14.52-0.68 14.52-1.43L14.52-1.43Q14.52-2.21 15.07-2.65Q15.61-3.08 16.60-3.08L16.60-3.08L17.67-3.08Q17.72-3.08 17.72-3.13L17.72-3.13L17.72-3.37Q17.72-3.76 17.49-3.98Q17.26-4.19 16.80-4.19L16.80-4.19Q16.42-4.19 16.19-4.05Q15.95-3.92 15.89-3.68L15.89-3.68Q15.86-3.56 15.75-3.58L15.75-3.58L14.78-3.70Q14.73-3.71 14.70-3.73Q14.66-3.76 14.67-3.80L14.67-3.80Q14.75-4.41 15.33-4.80Q15.90-5.19 16.77-5.19L16.77-5.19ZM16.53-0.84Q17.02-0.84 17.37-1.10Q17.72-1.36 17.72-1.76L17.72-1.76L17.72-2.23Q17.72-2.28 17.67-2.28L17.67-2.28L16.83-2.28Q16.30-2.28 16.00-2.08Q15.69-1.88 15.69-1.51L15.69-1.51Q15.69-1.19 15.93-1.02Q16.16-0.84 16.53-0.84L16.53-0.84ZM20.16 0Q20.11 0 20.08-0.04Q20.04-0.07 20.04-0.12L20.04-0.12L20.04-6.88Q20.04-6.93 20.08-6.96Q20.11-7 20.16-7L20.16-7L21.08-7Q21.13-7 21.17-6.96Q21.20-6.93 21.20-6.88L21.20-6.88L21.20-0.12Q21.20-0.07 21.17-0.04Q21.13 0 21.08 0L21.08 0L20.16 0ZM22.55 0Q22.50 0 22.47-0.04Q22.43-0.07 22.43-0.12L22.43-0.12L22.43-6.88Q22.43-6.93 22.47-6.96Q22.50-7 22.55-7L22.55-7L23.47-7Q23.52-7 23.56-6.96Q23.59-6.93 23.59-6.88L23.59-6.88L23.59-0.12Q23.59-0.07 23.56-0.04Q23.52 0 23.47 0L23.47 0L22.55 0ZM30.84-3.65Q30.78-3.62 30.84-3.59L30.84-3.59Q31.86-3.11 31.86-1.94L31.86-1.94Q31.86-0.99 31.23-0.49Q30.59 0 29.57 0L29.57 0L27.05 0Q27.00 0 26.97-0.04Q26.93-0.07 26.93-0.12L26.93-0.12L26.93-6.88Q26.93-6.93 26.97-6.96Q27.00-7 27.05-7L27.05-7L29.49-7Q30.58-7 31.17-6.53Q31.76-6.06 31.76-5.11L31.76-5.11Q31.76-4.06 30.84-3.65L30.84-3.65ZM28.14-6Q28.09-6 28.09-5.95L28.09-5.95L28.09-4.10Q28.09-4.05 28.14-4.05L28.14-4.05L29.49-4.05Q30.02-4.05 30.33-4.30Q30.63-4.56 30.63-5.01L30.63-5.01Q30.63-5.47 30.33-5.74Q30.02-6 29.49-6L29.49-6L28.14-6ZM29.57-1.01Q30.09-1.01 30.40-1.29Q30.70-1.57 30.70-2.05L30.70-2.05Q30.70-2.54 30.39-2.81Q30.08-3.09 29.55-3.09L29.55-3.09L28.14-3.09Q28.09-3.09 28.09-3.04L28.09-3.04L28.09-1.06Q28.09-1.01 28.14-1.01L28.14-1.01L29.57-1.01ZM35.97-4.99Q35.97-5.04 36.00-5.08Q36.04-5.11 36.09-5.11L36.09-5.11L37-5.11Q37.05-5.11 37.09-5.08Q37.12-5.04 37.12-4.99L37.12-4.99L37.12-0.12Q37.12-0.07 37.09-0.04Q37.05 0 37 0L37 0L36.09 0Q36.04 0 36.00-0.04Q35.97-0.07 35.97-0.12L35.97-0.12L35.97-0.44Q35.97-0.47 35.95-0.48Q35.93-0.49 35.91-0.46L35.91-0.46Q35.50 0.07 34.68 0.07L34.68 0.07Q33.92 0.07 33.41-0.37Q32.89-0.81 32.89-1.62L32.89-1.62L32.89-4.99Q32.89-5.04 32.92-5.08Q32.96-5.11 33.01-5.11L33.01-5.11L33.93-5.11Q33.98-5.11 34.02-5.08Q34.05-5.04 34.05-4.99L34.05-4.99L34.05-1.95Q34.05-1.48 34.30-1.20Q34.54-0.92 34.98-0.92L34.98-0.92Q35.43-0.92 35.70-1.20Q35.97-1.48 35.97-1.95L35.97-1.95L35.97-4.99ZM40.26 0.06Q39.63 0.06 39.15-0.13Q38.68-0.31 38.42-0.64Q38.16-0.96 38.16-1.36L38.16-1.36L38.16-1.45Q38.16-1.50 38.19-1.54Q38.23-1.57 38.28-1.57L38.28-1.57L39.16-1.57Q39.21-1.57 39.24-1.54Q39.28-1.50 39.28-1.45L39.28-1.45L39.28-1.43Q39.28-1.18 39.55-0.99Q39.83-0.81 40.25-0.81L40.25-0.81Q40.65-0.81 40.90-0.97Q41.15-1.14 41.15-1.39L41.15-1.39Q41.15-1.62 40.94-1.74Q40.74-1.85 40.28-1.98L40.28-1.98L39.90-2.10Q39.39-2.25 39.04-2.42Q38.69-2.59 38.45-2.89Q38.21-3.18 38.21-3.64L38.21-3.64Q38.21-4.34 38.76-4.75Q39.31-5.17 40.21-5.17L40.21-5.17Q40.82-5.17 41.28-4.98Q41.74-4.78 41.99-4.44Q42.24-4.09 42.24-3.65L42.24-3.65Q42.24-3.60 42.20-3.56Q42.17-3.53 42.12-3.53L42.12-3.53L41.27-3.53Q41.22-3.53 41.18-3.56Q41.15-3.60 41.15-3.65L41.15-3.65Q41.15-3.91 40.89-4.08Q40.64-4.26 40.20-4.26L40.20-4.26Q39.81-4.26 39.56-4.12Q39.32-3.97 39.32-3.71L39.32-3.71Q39.32-3.47 39.55-3.35Q39.79-3.22 40.34-3.07L40.34-3.07L40.56-3.01Q41.09-2.85 41.45-2.69Q41.81-2.52 42.06-2.23Q42.31-1.93 42.31-1.46L42.31-1.46Q42.31-0.75 41.75-0.35Q41.19 0.06 40.26 0.06L40.26 0.06ZM43.95-5.81Q43.64-5.81 43.44-6.01Q43.24-6.21 43.24-6.52L43.24-6.52Q43.24-6.83 43.44-7.03Q43.64-7.23 43.95-7.23L43.95-7.23Q44.26-7.23 44.46-7.03Q44.66-6.83 44.66-6.52L44.66-6.52Q44.66-6.21 44.46-6.01Q44.26-5.81 43.95-5.81L43.95-5.81ZM43.47 0Q43.42 0 43.38-0.04Q43.35-0.07 43.35-0.12L43.35-0.12L43.35-5Q43.35-5.05 43.38-5.08Q43.42-5.12 43.47-5.12L43.47-5.12L44.39-5.12Q44.44-5.12 44.47-5.08Q44.51-5.05 44.51-5L44.51-5L44.51-0.12Q44.51-0.07 44.47-0.04Q44.44 0 44.39 0L44.39 0L43.47 0ZM48.29-5.19Q49.10-5.19 49.58-4.71Q50.07-4.23 50.07-3.40L50.07-3.40L50.07-0.12Q50.07-0.07 50.03-0.04Q50.00 0 49.95 0L49.95 0L49.03 0Q48.98 0 48.94-0.04Q48.91-0.07 48.91-0.12L48.91-0.12L48.91-3.16Q48.91-3.62 48.65-3.91Q48.39-4.19 47.96-4.19L47.96-4.19Q47.53-4.19 47.26-3.91Q47.00-3.63 47.00-3.17L47.00-3.17L47.00-0.12Q47.00-0.07 46.96-0.04Q46.93 0 46.88 0L46.88 0L45.96 0Q45.91 0 45.87-0.04Q45.84-0.07 45.84-0.12L45.84-0.12L45.84-4.99Q45.84-5.04 45.87-5.08Q45.91-5.11 45.96-5.11L45.96-5.11L46.88-5.11Q46.93-5.11 46.96-5.08Q47.00-5.04 47.00-4.99L47.00-4.99L47.00-4.67Q47.00-4.64 47.02-4.63Q47.04-4.62 47.05-4.65L47.05-4.65Q47.46-5.19 48.29-5.19L48.29-5.19ZM55.55-3.13Q55.59-2.88 55.59-2.57L55.59-2.57L55.58-2.26Q55.58-2.14 55.46-2.14L55.46-2.14L52.33-2.14Q52.28-2.14 52.28-2.09L52.28-2.09Q52.31-1.76 52.37-1.64L52.37-1.64Q52.61-0.92 53.54-0.91L53.54-0.91Q54.22-0.91 54.62-1.47L54.62-1.47Q54.66-1.53 54.72-1.53L54.72-1.53Q54.76-1.53 54.79-1.50L54.79-1.50L55.41-0.99Q55.50-0.92 55.44-0.83L55.44-0.83Q55.13-0.39 54.61-0.15Q54.10 0.09 53.47 0.09L53.47 0.09Q52.69 0.09 52.14-0.26Q51.60-0.61 51.35-1.24L51.35-1.24Q51.12-1.78 51.12-2.74L51.12-2.74Q51.12-3.32 51.24-3.68L51.24-3.68Q51.44-4.38 51.99-4.79Q52.55-5.19 53.33-5.19L53.33-5.19Q55.30-5.19 55.55-3.13L55.55-3.13ZM53.33-4.19Q52.96-4.19 52.71-4.00Q52.47-3.82 52.37-3.49L52.37-3.49Q52.31-3.32 52.29-3.05L52.29-3.05Q52.27-3 52.33-3L52.33-3L54.36-3Q54.41-3 54.41-3.05L54.41-3.05Q54.39-3.30 54.35-3.43L54.35-3.43Q54.26-3.79 53.99-3.99Q53.73-4.19 53.33-4.19L53.33-4.19ZM58.47 0.06Q57.84 0.06 57.36-0.13Q56.89-0.31 56.63-0.64Q56.37-0.96 56.37-1.36L56.37-1.36L56.37-1.45Q56.37-1.50 56.40-1.54Q56.44-1.57 56.49-1.57L56.49-1.57L57.37-1.57Q57.42-1.57 57.45-1.54Q57.49-1.50 57.49-1.45L57.49-1.45L57.49-1.43Q57.49-1.18 57.76-0.99Q58.04-0.81 58.46-0.81L58.46-0.81Q58.86-0.81 59.11-0.97Q59.36-1.14 59.36-1.39L59.36-1.39Q59.36-1.62 59.15-1.74Q58.95-1.85 58.49-1.98L58.49-1.98L58.11-2.10Q57.60-2.25 57.25-2.42Q56.90-2.59 56.66-2.89Q56.42-3.18 56.42-3.64L56.42-3.64Q56.42-4.34 56.97-4.75Q57.52-5.17 58.42-5.17L58.42-5.17Q59.03-5.17 59.49-4.98Q59.95-4.78 60.20-4.44Q60.45-4.09 60.45-3.65L60.45-3.65Q60.45-3.60 60.41-3.56Q60.38-3.53 60.33-3.53L60.33-3.53L59.48-3.53Q59.43-3.53 59.39-3.56Q59.36-3.60 59.36-3.65L59.36-3.65Q59.36-3.91 59.10-4.08Q58.85-4.26 58.41-4.26L58.41-4.26Q58.02-4.26 57.77-4.12Q57.53-3.97 57.53-3.71L57.53-3.71Q57.53-3.47 57.76-3.35Q58.00-3.22 58.55-3.07L58.55-3.07L58.77-3.01Q59.30-2.85 59.66-2.69Q60.02-2.52 60.27-2.23Q60.52-1.93 60.52-1.46L60.52-1.46Q60.52-0.75 59.96-0.35Q59.40 0.06 58.47 0.06L58.47 0.06ZM63.30 0.06Q62.67 0.06 62.19-0.13Q61.72-0.31 61.46-0.64Q61.20-0.96 61.20-1.36L61.20-1.36L61.20-1.45Q61.20-1.50 61.23-1.54Q61.27-1.57 61.32-1.57L61.32-1.57L62.20-1.57Q62.25-1.57 62.28-1.54Q62.32-1.50 62.32-1.45L62.32-1.45L62.32-1.43Q62.32-1.18 62.59-0.99Q62.87-0.81 63.29-0.81L63.29-0.81Q63.69-0.81 63.94-0.97Q64.19-1.14 64.19-1.39L64.19-1.39Q64.19-1.62 63.98-1.74Q63.78-1.85 63.32-1.98L63.32-1.98L62.94-2.10Q62.43-2.25 62.08-2.42Q61.73-2.59 61.49-2.89Q61.25-3.18 61.25-3.64L61.25-3.64Q61.25-4.34 61.80-4.75Q62.35-5.17 63.25-5.17L63.25-5.17Q63.86-5.17 64.32-4.98Q64.78-4.78 65.03-4.44Q65.28-4.09 65.28-3.65L65.28-3.65Q65.28-3.60 65.24-3.56Q65.21-3.53 65.16-3.53L65.16-3.53L64.31-3.53Q64.26-3.53 64.22-3.56Q64.19-3.60 64.19-3.65L64.19-3.65Q64.19-3.91 63.93-4.08Q63.68-4.26 63.24-4.26L63.24-4.26Q62.85-4.26 62.60-4.12Q62.36-3.97 62.36-3.71L62.36-3.71Q62.36-3.47 62.59-3.35Q62.83-3.22 63.38-3.07L63.38-3.07L63.60-3.01Q64.13-2.85 64.49-2.69Q64.85-2.52 65.10-2.23Q65.35-1.93 65.35-1.46L65.35-1.46Q65.35-0.75 64.79-0.35Q64.23 0.06 63.30 0.06L63.30 0.06Z"/><path fill="#252530" transform="translate(35.03, 89.5)" d="M5.46-5.91Q5.46-5.86 5.42-5.83Q5.39-5.79 5.34-5.79L5.34-5.79L2.07-5.79Q2.02-5.79 2.02-5.74L2.02-5.74L2.02-4.19Q2.02-4.14 2.07-4.14L2.07-4.14L4.22-4.14Q4.27-4.14 4.30-4.11Q4.34-4.07 4.34-4.02L4.34-4.02L4.34-3.05Q4.34-3 4.30-2.96Q4.27-2.93 4.22-2.93L4.22-2.93L2.07-2.93Q2.02-2.93 2.02-2.88L2.02-2.88L2.02-0.12Q2.02-0.07 1.99-0.04Q1.95 0 1.90 0L1.90 0L0.73 0Q0.68 0 0.65-0.04Q0.61-0.07 0.61-0.12L0.61-0.12L0.61-6.88Q0.61-6.93 0.65-6.96Q0.68-7 0.73-7L0.73-7L5.34-7Q5.39-7 5.42-6.96Q5.46-6.93 5.46-6.88L5.46-6.88L5.46-5.91ZM9.88 0Q9.78 0 9.75-0.10L9.75-0.10L9.45-1.08Q9.43-1.12 9.40-1.12L9.40-1.12L6.94-1.12Q6.91-1.12 6.89-1.08L6.89-1.08L6.60-0.10Q6.57 0 6.47 0L6.47 0L5.20 0Q5.14 0 5.11-0.04Q5.08-0.07 5.10-0.14L5.10-0.14L7.26-6.90Q7.29-7 7.39-7L7.39-7L8.96-7Q9.06-7 9.09-6.90L9.09-6.90L11.25-0.14Q11.26-0.12 11.26-0.09L11.26-0.09Q11.26 0 11.15 0L11.15 0L9.88 0ZM7.25-2.27Q7.24-2.21 7.29-2.21L7.29-2.21L9.05-2.21Q9.11-2.21 9.09-2.27L9.09-2.27L8.19-5.24Q8.18-5.28 8.16-5.28Q8.14-5.27 8.13-5.24L8.13-5.24L7.25-2.27ZM12.26 0Q12.21 0 12.18-0.04Q12.14-0.07 12.14-0.12L12.14-0.12L12.14-6.88Q12.14-6.93 12.18-6.96Q12.21-7 12.26-7L12.26-7L13.43-7Q13.48-7 13.52-6.96Q13.55-6.93 13.55-6.88L13.55-6.88L13.55-1.26Q13.55-1.21 13.60-1.21L13.60-1.21L16.87-1.21Q16.92-1.21 16.96-1.18Q16.99-1.14 16.99-1.09L16.99-1.09L16.99-0.12Q16.99-0.07 16.96-0.04Q16.92 0 16.87 0L16.87 0L12.26 0ZM17.98 0Q17.93 0 17.89-0.04Q17.86-0.07 17.86-0.12L17.86-0.12L17.86-6.88Q17.86-6.93 17.89-6.96Q17.93-7 17.98-7L17.98-7L19.15-7Q19.20-7 19.23-6.96Q19.27-6.93 19.27-6.88L19.27-6.88L19.27-1.26Q19.27-1.21 19.32-1.21L19.32-1.21L22.59-1.21Q22.64-1.21 22.68-1.18Q22.71-1.14 22.71-1.09L22.71-1.09L22.71-0.12Q22.71-0.07 22.68-0.04Q22.64 0 22.59 0L22.59 0L17.98 0Z"/><path fill="#252530" transform="translate(36.68, 98.9)" d="M2.33-1.27Q2.31-1.25 2.32-1.23Q2.33-1.21 2.36-1.21L2.36-1.21L5.07-1.21Q5.12-1.21 5.16-1.18Q5.19-1.14 5.19-1.09L5.19-1.09L5.19-0.12Q5.19-0.07 5.16-0.04Q5.12 0 5.07 0L5.07 0L0.57 0Q0.52 0 0.48-0.04Q0.45-0.07 0.45-0.12L0.45-0.12L0.45-1.04Q0.45-1.13 0.51-1.19L0.51-1.19Q1-1.67 1.51-2.23Q2.02-2.80 2.15-2.94L2.15-2.94Q2.43-3.27 2.72-3.57L2.72-3.57Q3.63-4.58 3.63-5.07L3.63-5.07Q3.63-5.42 3.38-5.65Q3.13-5.87 2.73-5.87L2.73-5.87Q2.33-5.87 2.08-5.65Q1.83-5.42 1.83-5.05L1.83-5.05L1.83-4.80Q1.83-4.75 1.79-4.71Q1.76-4.68 1.71-4.68L1.71-4.68L0.53-4.68Q0.48-4.68 0.45-4.71Q0.41-4.75 0.41-4.80L0.41-4.80L0.41-5.27Q0.44-5.81 0.75-6.23Q1.06-6.64 1.57-6.86Q2.09-7.08 2.73-7.08L2.73-7.08Q3.44-7.08 3.97-6.82Q4.49-6.55 4.78-6.10Q5.06-5.65 5.06-5.10L5.06-5.10Q5.06-4.68 4.85-4.24Q4.64-3.80 4.22-3.29L4.22-3.29Q3.91-2.90 3.55-2.52Q3.19-2.14 2.48-1.42L2.48-1.42L2.33-1.27ZM8.44 0.11Q7.34 0.11 6.70-0.51Q6.06-1.12 6.06-2.18L6.06-2.18L6.06-4.82Q6.06-5.86 6.70-6.47Q7.34-7.08 8.44-7.08L8.44-7.08Q9.54-7.08 10.19-6.47Q10.83-5.86 10.83-4.82L10.83-4.82L10.83-2.18Q10.83-1.12 10.19-0.51Q9.54 0.11 8.44 0.11L8.44 0.11ZM8.44-1.10Q8.89-1.10 9.16-1.38Q9.42-1.65 9.42-2.11L9.42-2.11L9.42-4.86Q9.42-5.32 9.16-5.59Q8.89-5.87 8.44-5.87L8.44-5.87Q8-5.87 7.74-5.59Q7.47-5.32 7.47-4.86L7.47-4.86L7.47-2.11Q7.47-1.65 7.74-1.38Q8-1.10 8.44-1.10L8.44-1.10ZM13.63-1.27Q13.61-1.25 13.62-1.23Q13.63-1.21 13.66-1.21L13.66-1.21L16.37-1.21Q16.42-1.21 16.46-1.18Q16.49-1.14 16.49-1.09L16.49-1.09L16.49-0.12Q16.49-0.07 16.46-0.04Q16.42 0 16.37 0L16.37 0L11.87 0Q11.82 0 11.79-0.04Q11.75-0.07 11.75-0.12L11.75-0.12L11.75-1.04Q11.75-1.13 11.81-1.19L11.81-1.19Q12.30-1.67 12.81-2.23Q13.32-2.80 13.45-2.94L13.45-2.94Q13.73-3.27 14.02-3.57L14.02-3.57Q14.93-4.58 14.93-5.07L14.93-5.07Q14.93-5.42 14.68-5.65Q14.43-5.87 14.03-5.87L14.03-5.87Q13.63-5.87 13.38-5.65Q13.13-5.42 13.13-5.05L13.13-5.05L13.13-4.80Q13.13-4.75 13.10-4.71Q13.06-4.68 13.01-4.68L13.01-4.68L11.83-4.68Q11.78-4.68 11.75-4.71Q11.71-4.75 11.71-4.80L11.71-4.80L11.71-5.27Q11.74-5.81 12.05-6.23Q12.36-6.64 12.88-6.86Q13.39-7.08 14.03-7.08L14.03-7.08Q14.74-7.08 15.27-6.82Q15.79-6.55 16.08-6.10Q16.36-5.65 16.36-5.10L16.36-5.10Q16.36-4.68 16.15-4.24Q15.94-3.80 15.52-3.29L15.52-3.29Q15.21-2.90 14.85-2.52Q14.49-2.14 13.78-1.42L13.78-1.42L13.63-1.27ZM18.34-6.97Q18.39-7 18.49-7L18.49-7L19.70-7Q19.75-7 19.79-6.96Q19.82-6.93 19.82-6.88L19.82-6.88L19.82-0.12Q19.82-0.07 19.79-0.04Q19.75 0 19.70 0L19.70 0L18.53 0Q18.48 0 18.45-0.04Q18.41-0.07 18.41-0.12L18.41-0.12L18.41-5.60Q18.41-5.62 18.39-5.64Q18.37-5.66 18.35-5.65L18.35-5.65L17.36-5.38L17.32-5.37Q17.23-5.37 17.23-5.48L17.23-5.48L17.20-6.34Q17.20-6.44 17.29-6.48L17.29-6.48L18.34-6.97Z"/></g>
</svg>