<svg id="Layer_1" data-name="Layer 1" xmlns="http://www.w3.org/2000/svg" width="94" height="105.99" viewBox="0 0 94 105.99">
  <g id="container">
    <defs>
      <style>.cls-1,.cls-2{fill:none;}.cls-1{clip-rule:evenodd;}.cls-3{fill:#fff;}.cls-4{fill:#f7f8f7;}.cls-5{fill:#e9e9ea;}.cls-6{clip-path:url(#clip-path);}.cls-7{clip-path:url(#clip-path-2);}.cls-9{clip-path:url(#clip-path-3);}</style>
      <clipPath id="clip-path">
        <polygon class="cls-1" points="90.79 56.99 3.21 56.99 0 64.49 3.21 71.99 90.79 71.99 94 64.49 90.79 56.99"/>
      </clipPath>
      <clipPath id="clip-path-2">
        <rect class="cls-2" y="-1.01" width="94" height="122"/>
      </clipPath>
      <clipPath id="clip-path-3">
        <path class="cls-1" d="M47,21l10-5.6V0H37v15.4ZM49,7.86a2.15,2.15,0,0,1,.3-1.18,2.61,2.61,0,0,1,1.06-.84l.24-.1c.41-.2.51-.37.51-.57s-.22-.41-.57-.41a1,1,0,0,0-1,.62L49,4.85a1.49,1.49,0,0,1,.6-.62A1.72,1.72,0,0,1,50.49,4a1.77,1.77,0,0,1,1.06.31,1,1,0,0,1,.45.86c0,.58-.34.93-1,1.25l-.37.17c-.38.19-.57.35-.63.64h2V8H49ZM51.5,9l1.5,2.5L51.5,14,50,11.49H47L48.5,9ZM47.29,4a6.36,6.36,0,0,1,1.24.12L47.29,6.56A3.52,3.52,0,0,0,43.7,10a3.52,3.52,0,0,0,3.59,3.43,3.68,3.68,0,0,0,2.35-.83L51,14.84A6.5,6.5,0,0,1,47.29,16,6.16,6.16,0,0,1,41,10,6.16,6.16,0,0,1,47.29,4Z"/>
      </clipPath>
    </defs>
    <title>11-9-19_Dive_DC_IGArtboard 2</title>
    <path class="cls-3" d="M47.82,103,6.63,82.45V13.88A17.67,17.67,0,0,0,21.29,2H72.63A17.69,17.69,0,0,0,87.5,13.92V82.45Z"/>
    <path class="cls-4" d="M7,82.45,47.74,103,87,82.43V13.92a19.46,19.46,0,0,1-9-3.69Z"/>
    <path class="cls-5" d="M89,12h-.13A15.51,15.51,0,0,1,73.79,0H20A15.53,15.53,0,0,1,5,12V84.22l1.42.72,40.14,20.44,1.2.61h0l1.19-.63L87.61,84.92,89,84.19V14h0ZM47.74,103,7,82.45V13.88A17.5,17.5,0,0,0,21.49,2H72.28A17.52,17.52,0,0,0,87,13.92V82.45Z"/>
    <g class="cls-6">
      <g class="cls-7">
        <rect id="banner" class="cls-8" x="-5" y="51.99" width="104" height="25" fill="#9132a2"/>
      </g>
    </g>
    <g class="cls-9">
      <g class="cls-7">
        <rect id="logo" class="cls-10" x="32" y="-5.01" width="30" height="31" fill="#9132a2"/>
      </g>
    </g>
  <path fill="#252530" transform="translate(12.05, 52.1)" d="M5.25-10.51Q6.24-10.51 6.99-10.11Q7.74-9.71 8.15-8.96Q8.56-8.22 8.56-7.26L8.56-7.26Q8.56-6.31 8.14-5.59Q7.71-4.88 6.94-4.48Q6.17-4.08 5.16-4.08L5.16-4.08L3.03-4.08Q2.96-4.08 2.96-4.00L2.96-4.00L2.96-0.18Q2.96-0.10 2.90-0.05Q2.85 0 2.77 0L2.77 0L1.02 0Q0.94 0 0.89-0.05Q0.84-0.10 0.84-0.18L0.84-0.18L0.84-10.33Q0.84-10.41 0.89-10.46Q0.94-10.51 1.02-10.51L1.02-10.51L5.25-10.51ZM4.93-5.77Q5.63-5.77 6.04-6.17Q6.46-6.57 6.46-7.21L6.46-7.21Q6.46-7.88 6.04-8.28Q5.63-8.69 4.93-8.69L4.93-8.69L3.03-8.69Q2.96-8.69 2.96-8.61L2.96-8.61L2.96-5.85Q2.96-5.77 3.03-5.77L3.03-5.77L4.93-5.77ZM16.13-4.65Q16.21-4.08 16.18-3.38L16.18-3.38Q16.17-3.19 15.99-3.19L15.99-3.19L11.36-3.19Q11.27-3.19 11.29-3.12L11.29-3.12Q11.34-2.82 11.46-2.52L11.46-2.52Q11.85-1.68 13.05-1.68L13.05-1.68Q14.01-1.69 14.56-2.46L14.56-2.46Q14.63-2.55 14.70-2.55L14.70-2.55Q14.74-2.55 14.80-2.49L14.80-2.49L15.88-1.43Q15.96-1.35 15.96-1.29L15.96-1.29Q15.96-1.26 15.90-1.17L15.90-1.17Q15.40-0.55 14.63-0.22Q13.84 0.12 12.91 0.12L12.91 0.12Q11.63 0.12 10.73-0.46Q9.84-1.05 9.45-2.10L9.45-2.10Q9.13-2.85 9.13-4.06L9.13-4.06Q9.13-4.89 9.36-5.52L9.36-5.52Q9.71-6.58 10.57-7.21Q11.43-7.84 12.61-7.84L12.61-7.84Q14.11-7.84 15.02-6.97Q15.93-6.10 16.13-4.65L16.13-4.65ZM12.63-6.01Q11.68-6.01 11.38-5.13L11.38-5.13Q11.32-4.93 11.28-4.65L11.28-4.65Q11.28-4.58 11.36-4.58L11.36-4.58L13.95-4.58Q14.04-4.58 14.01-4.65L14.01-4.65Q13.93-5.08 13.93-5.07L13.93-5.07Q13.80-5.52 13.46-5.77Q13.13-6.01 12.63-6.01L12.63-6.01ZM21.33-7.81Q21.87-7.81 22.19-7.60L22.19-7.60Q22.30-7.54 22.27-7.38L22.27-7.38L21.96-5.67Q21.95-5.49 21.75-5.56L21.75-5.56Q21.52-5.64 21.23-5.64L21.23-5.64Q21.11-5.64 20.89-5.61L20.89-5.61Q20.36-5.56 19.98-5.21Q19.61-4.86 19.61-4.27L19.61-4.27L19.61-0.18Q19.61-0.10 19.55-0.05Q19.50 0 19.43 0L19.43 0L17.67 0Q17.60 0 17.54-0.05Q17.49-0.10 17.49-0.18L17.49-0.18L17.49-7.53Q17.49-7.60 17.54-7.66Q17.60-7.71 17.67-7.71L17.67-7.71L19.43-7.71Q19.50-7.71 19.55-7.66Q19.61-7.60 19.61-7.53L19.61-7.53L19.61-6.96Q19.61-6.92 19.64-6.90Q19.66-6.88 19.68-6.92L19.68-6.92Q20.30-7.81 21.33-7.81L21.33-7.81ZM27.72-7.72Q27.80-7.72 27.85-7.67Q27.90-7.62 27.90-7.54L27.90-7.54L27.90-6.12Q27.90-6.04 27.85-5.99Q27.80-5.94 27.72-5.94L27.72-5.94L26.27-5.94Q26.19-5.94 26.19-5.87L26.19-5.87L26.19-0.18Q26.19-0.10 26.14-0.05Q26.09 0 26.01 0L26.01 0L24.26 0Q24.18 0 24.13-0.05Q24.08-0.10 24.08-0.18L24.08-0.18L24.08-5.87Q24.08-5.94 24-5.94L24-5.94L23.12-5.94Q23.04-5.94 22.99-5.99Q22.94-6.04 22.94-6.12L22.94-6.12L22.94-7.54Q22.94-7.62 22.99-7.67Q23.04-7.72 23.12-7.72L23.12-7.72L24-7.72Q24.08-7.72 24.08-7.80L24.08-7.80L24.08-8.13Q24.08-9.06 24.36-9.58Q24.65-10.09 25.28-10.31Q25.92-10.53 27.05-10.50L27.05-10.50L27.62-10.50Q27.69-10.50 27.74-10.45Q27.80-10.39 27.80-10.32L27.80-10.32L27.80-9.11Q27.80-9.03 27.74-8.98Q27.69-8.92 27.62-8.92L27.62-8.92L27.12-8.92Q26.60-8.91 26.39-8.71Q26.19-8.50 26.19-7.96L26.19-7.96L26.19-7.80Q26.19-7.72 26.27-7.72L26.27-7.72L27.72-7.72ZM32.07 0.12Q30.81 0.12 29.91-0.54Q29.01-1.20 28.68-2.34L28.68-2.34Q28.47-3.04 28.47-3.87L28.47-3.87Q28.47-4.75 28.68-5.46L28.68-5.46Q29.03-6.57 29.93-7.20Q30.83-7.83 32.09-7.83L32.09-7.83Q33.31-7.83 34.19-7.21Q35.05-6.58 35.41-5.47L35.41-5.47Q35.66-4.72 35.66-3.90L35.66-3.90Q35.66-3.09 35.45-2.38L35.45-2.38Q35.12-1.21 34.22-0.55Q33.33 0.12 32.07 0.12L32.07 0.12ZM32.07-1.69Q32.56-1.69 32.91-1.99Q33.26-2.29 33.41-2.82L33.41-2.82Q33.52-3.30 33.52-3.87L33.52-3.87Q33.52-4.50 33.41-4.93L33.41-4.93Q33.24-5.44 32.90-5.73Q32.55-6.01 32.05-6.01L32.05-6.01Q31.55-6.01 31.21-5.73Q30.87-5.44 30.72-4.93L30.72-4.93Q30.60-4.58 30.60-3.87L30.60-3.87Q30.60-3.19 30.71-2.82L30.71-2.82Q30.86-2.29 31.21-1.99Q31.56-1.69 32.07-1.69L32.07-1.69ZM40.86-7.81Q41.40-7.81 41.72-7.60L41.72-7.60Q41.84-7.54 41.80-7.38L41.80-7.38L41.49-5.67Q41.48-5.49 41.28-5.56L41.28-5.56Q41.05-5.64 40.76-5.64L40.76-5.64Q40.64-5.64 40.43-5.61L40.43-5.61Q39.89-5.56 39.51-5.21Q39.14-4.86 39.14-4.27L39.14-4.27L39.14-0.18Q39.14-0.10 39.08-0.05Q39.03 0 38.95 0L38.95 0L37.20 0Q37.13 0 37.07-0.05Q37.02-0.10 37.02-0.18L37.02-0.18L37.02-7.53Q37.02-7.60 37.07-7.66Q37.13-7.71 37.20-7.71L37.20-7.71L38.95-7.71Q39.03-7.71 39.08-7.66Q39.14-7.60 39.14-7.53L39.14-7.53L39.14-6.96Q39.14-6.92 39.16-6.90Q39.20-6.88 39.21-6.92L39.21-6.92Q39.83-7.81 40.86-7.81L40.86-7.81ZM51.31-7.83Q52.48-7.83 53.14-7.13Q53.80-6.42 53.80-5.14L53.80-5.14L53.80-0.18Q53.80-0.10 53.75-0.05Q53.70 0 53.63 0L53.63 0L51.87 0Q51.80 0 51.74-0.05Q51.69-0.10 51.69-0.18L51.69-0.18L51.69-4.68Q51.69-5.29 51.38-5.65Q51.06-6.01 50.53-6.01L50.53-6.01Q50.01-6.01 49.68-5.65Q49.35-5.29 49.35-4.69L49.35-4.69L49.35-0.18Q49.35-0.10 49.30-0.05Q49.24 0 49.17 0L49.17 0L47.43 0Q47.35 0 47.30-0.05Q47.25-0.10 47.25-0.18L47.25-0.18L47.25-4.68Q47.25-5.28 46.92-5.65Q46.59-6.01 46.06-6.01L46.06-6.01Q45.59-6.01 45.26-5.73Q44.94-5.44 44.88-4.93L44.88-4.93L44.88-0.18Q44.88-0.10 44.83-0.05Q44.77 0 44.70 0L44.70 0L42.95 0Q42.87 0 42.82-0.05Q42.77-0.10 42.77-0.18L42.77-0.18L42.77-7.53Q42.77-7.60 42.82-7.66Q42.87-7.71 42.95-7.71L42.95-7.71L44.70-7.71Q44.77-7.71 44.83-7.66Q44.88-7.60 44.88-7.53L44.88-7.53L44.88-6.94Q44.88-6.90 44.91-6.88Q44.94-6.87 44.97-6.92L44.97-6.92Q45.59-7.83 46.88-7.83L46.88-7.83Q47.63-7.83 48.19-7.51Q48.75-7.20 49.05-6.61L49.05-6.61Q49.09-6.52 49.16-6.61L49.16-6.61Q49.48-7.23 50.05-7.53Q50.61-7.83 51.31-7.83L51.31-7.83ZM62.07-4.65Q62.16-4.08 62.13-3.38L62.13-3.38Q62.11-3.19 61.93-3.19L61.93-3.19L57.30-3.19Q57.21-3.19 57.24-3.12L57.24-3.12Q57.28-2.82 57.40-2.52L57.40-2.52Q57.79-1.68 58.99-1.68L58.99-1.68Q59.95-1.69 60.51-2.46L60.51-2.46Q60.57-2.55 60.64-2.55L60.64-2.55Q60.69-2.55 60.75-2.49L60.75-2.49L61.83-1.43Q61.90-1.35 61.90-1.29L61.90-1.29Q61.90-1.26 61.84-1.17L61.84-1.17Q61.35-0.55 60.57-0.22Q59.79 0.12 58.86 0.12L58.86 0.12Q57.57 0.12 56.68-0.46Q55.78-1.05 55.39-2.10L55.39-2.10Q55.08-2.85 55.08-4.06L55.08-4.06Q55.08-4.89 55.30-5.52L55.30-5.52Q55.65-6.58 56.51-7.21Q57.37-7.84 58.56-7.84L58.56-7.84Q60.06-7.84 60.97-6.97Q61.88-6.10 62.07-4.65L62.07-4.65ZM58.57-6.01Q57.63-6.01 57.33-5.13L57.33-5.13Q57.27-4.93 57.22-4.65L57.22-4.65Q57.22-4.58 57.30-4.58L57.30-4.58L59.89-4.58Q59.98-4.58 59.95-4.65L59.95-4.65Q59.88-5.08 59.88-5.07L59.88-5.07Q59.74-5.52 59.41-5.77Q59.07-6.01 58.57-6.01L58.57-6.01ZM67.27-7.81Q67.81-7.81 68.13-7.60L68.13-7.60Q68.25-7.54 68.22-7.38L68.22-7.38L67.91-5.67Q67.89-5.49 67.69-5.56L67.69-5.56Q67.47-5.64 67.17-5.64L67.17-5.64Q67.05-5.64 66.84-5.61L66.84-5.61Q66.30-5.56 65.92-5.21Q65.55-4.86 65.55-4.27L65.55-4.27L65.55-0.18Q65.55-0.10 65.50-0.05Q65.44 0 65.37 0L65.37 0L63.61 0Q63.54 0 63.49-0.05Q63.43-0.10 63.43-0.18L63.43-0.18L63.43-7.53Q63.43-7.60 63.49-7.66Q63.54-7.71 63.61-7.71L63.61-7.71L65.37-7.71Q65.44-7.71 65.50-7.66Q65.55-7.60 65.55-7.53L65.55-7.53L65.55-6.96Q65.55-6.92 65.58-6.90Q65.61-6.88 65.63-6.92L65.63-6.92Q66.24-7.81 67.27-7.81L67.27-7.81Z"/><path fill="#252530" transform="translate(31.56, 37.1)" d="M6.50-10.32Q6.50-10.39 6.55-10.45Q6.60-10.50 6.67-10.50L6.67-10.50L8.43-10.50Q8.50-10.50 8.56-10.45Q8.61-10.39 8.61-10.32L8.61-10.32L8.61-0.18Q8.61-0.10 8.56-0.05Q8.50 0 8.43 0L8.43 0L6.67 0Q6.60 0 6.55-0.05Q6.50-0.10 6.50-0.18L6.50-0.18L6.50-4.32Q6.50-4.39 6.42-4.39L6.42-4.39L3.10-4.39Q3.03-4.39 3.03-4.32L3.03-4.32L3.03-0.18Q3.03-0.10 2.98-0.05Q2.92 0 2.85 0L2.85 0L1.09 0Q1.02 0 0.97-0.05Q0.91-0.10 0.91-0.18L0.91-0.18L0.91-10.32Q0.91-10.39 0.97-10.45Q1.02-10.50 1.09-10.50L1.09-10.50L2.85-10.50Q2.92-10.50 2.98-10.45Q3.03-10.39 3.03-10.32L3.03-10.32L3.03-6.29Q3.03-6.21 3.10-6.21L3.10-6.21L6.42-6.21Q6.50-6.21 6.50-6.29L6.50-6.29L6.50-10.32ZM11.34-8.58Q10.83-8.58 10.49-8.92Q10.15-9.25 10.15-9.76L10.15-9.76Q10.15-10.29 10.48-10.62Q10.81-10.95 11.34-10.95L11.34-10.95Q11.87-10.95 12.20-10.62Q12.53-10.29 12.53-9.76L12.53-9.76Q12.53-9.25 12.19-8.92Q11.85-8.58 11.34-8.58L11.34-8.58ZM10.44 0Q10.37 0 10.31-0.05Q10.26-0.10 10.26-0.18L10.26-0.18L10.26-7.54Q10.26-7.62 10.31-7.67Q10.37-7.72 10.44-7.72L10.44-7.72L12.20-7.72Q12.27-7.72 12.32-7.67Q12.38-7.62 12.38-7.54L12.38-7.54L12.38-0.18Q12.38-0.10 12.32-0.05Q12.27 0 12.20 0L12.20 0L10.44 0ZM18.73-7.53Q18.73-7.60 18.79-7.66Q18.84-7.71 18.91-7.71L18.91-7.71L20.67-7.71Q20.74-7.71 20.80-7.66Q20.85-7.60 20.85-7.53L20.85-7.53L20.85-0.69Q20.85 1.27 19.72 2.11Q18.59 2.96 16.80 2.96L16.80 2.96Q16.27 2.96 15.63 2.88L15.63 2.88Q15.48 2.86 15.48 2.69L15.48 2.69L15.54 1.14Q15.54 0.94 15.75 0.97L15.75 0.97Q16.29 1.06 16.74 1.06L16.74 1.06Q17.70 1.06 18.22 0.65Q18.73 0.22 18.73-0.70L18.73-0.70Q18.73-0.75 18.70-0.76Q18.67-0.77 18.64-0.73L18.64-0.73Q18.07-0.12 16.98-0.12L16.98-0.12Q16.00-0.12 15.19-0.59Q14.37-1.06 14.02-2.11L14.02-2.11Q13.80-2.80 13.80-3.90L13.80-3.90Q13.80-5.07 14.07-5.80L14.07-5.80Q14.38-6.72 15.13-7.27Q15.88-7.83 16.88-7.83L16.88-7.83Q18.03-7.83 18.64-7.14L18.64-7.14Q18.67-7.11 18.70-7.12Q18.73-7.13 18.73-7.17L18.73-7.17L18.73-7.53ZM18.61-2.69Q18.73-3.13 18.73-3.92L18.73-3.92Q18.73-4.38 18.70-4.63Q18.67-4.89 18.60-5.12L18.60-5.12Q18.46-5.52 18.15-5.77Q17.84-6.01 17.37-6.01L17.37-6.01Q16.92-6.01 16.61-5.77Q16.29-5.52 16.14-5.12L16.14-5.12Q15.93-4.67 15.93-3.90L15.93-3.90Q15.93-3.06 16.11-2.70L16.11-2.70Q16.24-2.29 16.58-2.05Q16.92-1.80 17.38-1.80L17.38-1.80Q17.86-1.80 18.18-2.05Q18.49-2.29 18.61-2.69L18.61-2.69ZM26.39-7.83Q27.59-7.83 28.32-7.09Q29.05-6.36 29.05-5.10L29.05-5.10L29.05-0.18Q29.05-0.10 29.00-0.05Q28.95 0 28.88 0L28.88 0L27.12 0Q27.05 0 26.99-0.05Q26.94-0.10 26.94-0.18L26.94-0.18L26.94-4.67Q26.94-5.26 26.60-5.64Q26.27-6.01 25.71-6.01L25.71-6.01Q25.16-6.01 24.82-5.64Q24.48-5.26 24.48-4.67L24.48-4.67L24.48-0.18Q24.48-0.10 24.43-0.05Q24.38 0 24.30 0L24.30 0L22.55 0Q22.47 0 22.42-0.05Q22.37-0.10 22.37-0.18L22.37-0.18L22.37-10.32Q22.37-10.39 22.42-10.45Q22.47-10.50 22.55-10.50L22.55-10.50L24.30-10.50Q24.38-10.50 24.43-10.45Q24.48-10.39 24.48-10.32L24.48-10.32L24.48-7.00Q24.48-6.96 24.51-6.94Q24.54-6.93 24.55-6.96L24.55-6.96Q25.17-7.83 26.39-7.83L26.39-7.83Z"/><path fill="#fff" transform="translate(35.85, 68.3)" d="M0.85 0Q0.80 0 0.77-0.04Q0.73-0.07 0.73-0.12L0.73-0.12L0.73-6.88Q0.73-6.93 0.77-6.96Q0.80-7 0.85-7L0.85-7L1.77-7Q1.82-7 1.85-6.96Q1.89-6.93 1.89-6.88L1.89-6.88L1.89-0.12Q1.89-0.07 1.85-0.04Q1.82 0 1.77 0L1.77 0L0.85 0ZM5.69-5.19Q6.50-5.19 6.99-4.71Q7.47-4.23 7.47-3.40L7.47-3.40L7.47-0.12Q7.47-0.07 7.44-0.04Q7.40 0 7.35 0L7.35 0L6.43 0Q6.38 0 6.35-0.04Q6.31-0.07 6.31-0.12L6.31-0.12L6.31-3.16Q6.31-3.62 6.05-3.91Q5.79-4.19 5.36-4.19L5.36-4.19Q4.93-4.19 4.67-3.91Q4.40-3.63 4.40-3.17L4.40-3.17L4.40-0.12Q4.40-0.07 4.37-0.04Q4.33 0 4.28 0L4.28 0L3.36 0Q3.31 0 3.28-0.04Q3.24-0.07 3.24-0.12L3.24-0.12L3.24-4.99Q3.24-5.04 3.28-5.08Q3.31-5.11 3.36-5.11L3.36-5.11L4.28-5.11Q4.33-5.11 4.37-5.08Q4.40-5.04 4.40-4.99L4.40-4.99L4.40-4.67Q4.40-4.64 4.42-4.63Q4.44-4.62 4.45-4.65L4.45-4.65Q4.86-5.19 5.69-5.19L5.69-5.19ZM11.81-6.88Q11.81-6.93 11.85-6.96Q11.88-7 11.93-7L11.93-7L12.85-7Q12.90-7 12.94-6.96Q12.97-6.93 12.97-6.88L12.97-6.88L12.97-0.12Q12.97-0.07 12.94-0.04Q12.90 0 12.85 0L12.85 0L11.93 0Q11.88 0 11.85-0.04Q11.81-0.07 11.81-0.12L11.81-0.12L11.81-0.42Q11.81-0.45 11.79-0.46Q11.77-0.47 11.75-0.44L11.75-0.44Q11.31 0.08 10.60 0.08L10.60 0.08Q9.89 0.08 9.40-0.29Q8.91-0.66 8.69-1.32L8.69-1.32Q8.51-1.88 8.51-2.57L8.51-2.57Q8.51-3.28 8.68-3.79L8.68-3.79Q8.90-4.45 9.39-4.82Q9.88-5.19 10.62-5.19L10.62-5.19Q11.31-5.19 11.75-4.69L11.75-4.69Q11.77-4.67 11.79-4.67Q11.81-4.68 11.81-4.71L11.81-4.71L11.81-6.88ZM11.57-1.40Q11.80-1.81 11.80-2.56L11.80-2.56Q11.80-3.34 11.55-3.75L11.55-3.75Q11.28-4.19 10.79-4.19L10.79-4.19Q10.28-4.19 9.99-3.77L9.99-3.77Q9.69-3.33 9.69-2.55L9.69-2.55Q9.69-1.85 9.93-1.40L9.93-1.40Q10.21-0.92 10.78-0.92L10.78-0.92Q11.29-0.92 11.57-1.40L11.57-1.40ZM14.89-5.81Q14.58-5.81 14.38-6.01Q14.18-6.21 14.18-6.52L14.18-6.52Q14.18-6.83 14.38-7.03Q14.58-7.23 14.89-7.23L14.89-7.23Q15.20-7.23 15.40-7.03Q15.60-6.83 15.60-6.52L15.60-6.52Q15.60-6.21 15.40-6.01Q15.20-5.81 14.89-5.81L14.89-5.81ZM14.41 0Q14.36 0 14.33-0.04Q14.29-0.07 14.29-0.12L14.29-0.12L14.29-5Q14.29-5.05 14.33-5.08Q14.36-5.12 14.41-5.12L14.41-5.12L15.33-5.12Q15.38-5.12 15.42-5.08Q15.45-5.05 15.45-5L15.45-5L15.45-0.12Q15.45-0.07 15.42-0.04Q15.38 0 15.33 0L15.33 0L14.41 0ZM18.73-5.19Q19.36-5.19 19.84-4.97Q20.32-4.75 20.58-4.37Q20.84-3.98 20.84-3.49L20.84-3.49L20.84-0.12Q20.84-0.07 20.80-0.04Q20.77 0 20.72 0L20.72 0L19.80 0Q19.75 0 19.71-0.04Q19.68-0.07 19.68-0.12L19.68-0.12L19.68-0.44Q19.68-0.47 19.66-0.48Q19.64-0.48 19.62-0.46L19.62-0.46Q19.13 0.08 18.20 0.08L18.20 0.08Q17.45 0.08 16.96-0.30Q16.48-0.68 16.48-1.43L16.48-1.43Q16.48-2.21 17.02-2.65Q17.57-3.08 18.56-3.08L18.56-3.08L19.63-3.08Q19.68-3.08 19.68-3.13L19.68-3.13L19.68-3.37Q19.68-3.76 19.45-3.98Q19.22-4.19 18.76-4.19L18.76-4.19Q18.38-4.19 18.14-4.05Q17.91-3.92 17.85-3.68L17.85-3.68Q17.82-3.56 17.71-3.58L17.71-3.58L16.74-3.70Q16.69-3.71 16.66-3.73Q16.62-3.76 16.63-3.80L16.63-3.80Q16.71-4.41 17.29-4.80Q17.86-5.19 18.73-5.19L18.73-5.19ZM18.49-0.84Q18.98-0.84 19.33-1.10Q19.68-1.36 19.68-1.76L19.68-1.76L19.68-2.23Q19.68-2.28 19.63-2.28L19.63-2.28L18.79-2.28Q18.26-2.28 17.95-2.08Q17.65-1.88 17.65-1.51L17.65-1.51Q17.65-1.19 17.89-1.02Q18.12-0.84 18.49-0.84L18.49-0.84Z"/><path fill="#252530" transform="translate(35.03, 82.4)" d="M5.46-5.91Q5.46-5.86 5.42-5.83Q5.39-5.79 5.34-5.79L5.34-5.79L2.07-5.79Q2.02-5.79 2.02-5.74L2.02-5.74L2.02-4.19Q2.02-4.14 2.07-4.14L2.07-4.14L4.22-4.14Q4.27-4.14 4.30-4.11Q4.34-4.07 4.34-4.02L4.34-4.02L4.34-3.05Q4.34-3 4.30-2.96Q4.27-2.93 4.22-2.93L4.22-2.93L2.07-2.93Q2.02-2.93 2.02-2.88L2.02-2.88L2.02-0.12Q2.02-0.07 1.99-0.04Q1.95 0 1.90 0L1.90 0L0.73 0Q0.68 0 0.65-0.04Q0.61-0.07 0.61-0.12L0.61-0.12L0.61-6.88Q0.61-6.93 0.65-6.96Q0.68-7 0.73-7L0.73-7L5.34-7Q5.39-7 5.42-6.96Q5.46-6.93 5.46-6.88L5.46-6.88L5.46-5.91ZM9.88 0Q9.78 0 9.75-0.10L9.75-0.10L9.45-1.08Q9.43-1.12 9.40-1.12L9.40-1.12L6.94-1.12Q6.91-1.12 6.89-1.08L6.89-1.08L6.60-0.10Q6.57 0 6.47 0L6.47 0L5.20 0Q5.14 0 5.11-0.04Q5.08-0.07 5.10-0.14L5.10-0.14L7.26-6.90Q7.29-7 7.39-7L7.39-7L8.96-7Q9.06-7 9.09-6.90L9.09-6.90L11.25-0.14Q11.26-0.12 11.26-0.09L11.26-0.09Q11.26 0 11.15 0L11.15 0L9.88 0ZM7.25-2.27Q7.24-2.21 7.29-2.21L7.29-2.21L9.05-2.21Q9.11-2.21 9.09-2.27L9.09-2.27L8.19-5.24Q8.18-5.28 8.16-5.28Q8.14-5.27 8.13-5.24L8.13-5.24L7.25-2.27ZM12.26 0Q12.21 0 12.18-0.04Q12.14-0.07 12.14-0.12L12.14-0.12L12.14-6.88Q12.14-6.93 12.18-6.96Q12.21-7 12.26-7L12.26-7L13.43-7Q13.48-7 13.52-6.96Q13.55-6.93 13.55-6.88L13.55-6.88L13.55-1.26Q13.55-1.21 13.60-1.21L13.60-1.21L16.87-1.21Q16.92-1.21 16.96-1.18Q16.99-1.14 16.99-1.09L16.99-1.09L16.99-0.12Q16.99-0.07 16.96-0.04Q16.92 0 16.87 0L16.87 0L12.26 0ZM17.98 0Q17.93 0 17.89-0.04Q17.86-0.07 17.86-0.12L17.86-0.12L17.86-6.88Q17.86-6.93 17.89-6.96Q17.93-7 17.98-7L17.98-7L19.15-7Q19.20-7 19.23-6.96Q19.27-6.93 19.27-6.88L19.27-6.88L19.27-1.26Q19.27-1.21 19.32-1.21L19.32-1.21L22.59-1.21Q22.64-1.21 22.68-1.18Q22.71-1.14 22.71-1.09L22.71-1.09L22.71-0.12Q22.71-0.07 22.68-0.04Q22.64 0 22.59 0L22.59 0L17.98 0Z"/><path fill="#252530" transform="translate(36.68, 91.8)" d="M2.33-1.27Q2.31-1.25 2.32-1.23Q2.33-1.21 2.36-1.21L2.36-1.21L5.07-1.21Q5.12-1.21 5.16-1.18Q5.19-1.14 5.19-1.09L5.19-1.09L5.19-0.12Q5.19-0.07 5.16-0.04Q5.12 0 5.07 0L5.07 0L0.57 0Q0.52 0 0.48-0.04Q0.45-0.07 0.45-0.12L0.45-0.12L0.45-1.04Q0.45-1.13 0.51-1.19L0.51-1.19Q1-1.67 1.51-2.23Q2.02-2.80 2.15-2.94L2.15-2.94Q2.43-3.27 2.72-3.57L2.72-3.57Q3.63-4.58 3.63-5.07L3.63-5.07Q3.63-5.42 3.38-5.65Q3.13-5.87 2.73-5.87L2.73-5.87Q2.33-5.87 2.08-5.65Q1.83-5.42 1.83-5.05L1.83-5.05L1.83-4.80Q1.83-4.75 1.79-4.71Q1.76-4.68 1.71-4.68L1.71-4.68L0.53-4.68Q0.48-4.68 0.45-4.71Q0.41-4.75 0.41-4.80L0.41-4.80L0.41-5.27Q0.44-5.81 0.75-6.23Q1.06-6.64 1.57-6.86Q2.09-7.08 2.73-7.08L2.73-7.08Q3.44-7.08 3.97-6.82Q4.49-6.55 4.78-6.10Q5.06-5.65 5.06-5.10L5.06-5.10Q5.06-4.68 4.85-4.24Q4.64-3.80 4.22-3.29L4.22-3.29Q3.91-2.90 3.55-2.52Q3.19-2.14 2.48-1.42L2.48-1.42L2.33-1.27ZM8.44 0.11Q7.34 0.11 6.70-0.51Q6.06-1.12 6.06-2.18L6.06-2.18L6.06-4.82Q6.06-5.86 6.70-6.47Q7.34-7.08 8.44-7.08L8.44-7.08Q9.54-7.08 10.19-6.47Q10.83-5.86 10.83-4.82L10.83-4.82L10.83-2.18Q10.83-1.12 10.19-0.51Q9.54 0.11 8.44 0.11L8.44 0.11ZM8.44-1.10Q8.89-1.10 9.16-1.38Q9.42-1.65 9.42-2.11L9.42-2.11L9.42-4.86Q9.42-5.32 9.16-5.59Q8.89-5.87 8.44-5.87L8.44-5.87Q8-5.87 7.74-5.59Q7.47-5.32 7.47-4.86L7.47-4.86L7.47-2.11Q7.47-1.65 7.74-1.38Q8-1.10 8.44-1.10L8.44-1.10ZM13.63-1.27Q13.61-1.25 13.62-1.23Q13.63-1.21 13.66-1.21L13.66-1.21L16.37-1.21Q16.42-1.21 16.46-1.18Q16.49-1.14 16.49-1.09L16.49-1.09L16.49-0.12Q16.49-0.07 16.46-0.04Q16.42 0 16.37 0L16.37 0L11.87 0Q11.82 0 11.79-0.04Q11.75-0.07 11.75-0.12L11.75-0.12L11.75-1.04Q11.75-1.13 11.81-1.19L11.81-1.19Q12.30-1.67 12.81-2.23Q13.32-2.80 13.45-2.94L13.45-2.94Q13.73-3.27 14.02-3.57L14.02-3.57Q14.93-4.58 14.93-5.07L14.93-5.07Q14.93-5.42 14.68-5.65Q14.43-5.87 14.03-5.87L14.03-5.87Q13.63-5.87 13.38-5.65Q13.13-5.42 13.13-5.05L13.13-5.05L13.13-4.80Q13.13-4.75 13.10-4.71Q13.06-4.68 13.01-4.68L13.01-4.68L11.83-4.68Q11.78-4.68 11.75-4.71Q11.71-4.75 11.71-4.80L11.71-4.80L11.71-5.27Q11.74-5.81 12.05-6.23Q12.36-6.64 12.88-6.86Q13.39-7.08 14.03-7.08L14.03-7.08Q14.74-7.08 15.27-6.82Q15.79-6.55 16.08-6.10Q16.36-5.65 16.36-5.10L16.36-5.10Q16.36-4.68 16.15-4.24Q15.94-3.80 15.52-3.29L15.52-3.29Q15.21-2.90 14.85-2.52Q14.49-2.14 13.78-1.42L13.78-1.42L13.63-1.27ZM18.34-6.97Q18.39-7 18.49-7L18.49-7L19.70-7Q19.75-7 19.79-6.96Q19.82-6.93 19.82-6.88L19.82-6.88L19.82-0.12Q19.82-0.07 19.79-0.04Q19.75 0 19.70 0L19.70 0L18.53 0Q18.48 0 18.45-0.04Q18.41-0.07 18.41-0.12L18.41-0.12L18.41-5.60Q18.41-5.62 18.39-5.64Q18.37-5.66 18.35-5.65L18.35-5.65L17.36-5.38L17.32-5.37Q17.23-5.37 17.23-5.48L17.23-5.48L17.20-6.34Q17.20-6.44 17.29-6.48L17.29-6.48L18.34-6.97Z"/></g>
</svg>